<svg xmlns="http://www.w3.org/2000/svg" version="1.1" xmlns:xlink="http://www.w3.org/1999/xlink" xmlns:svgjs="http://svgjs.com/svgjs" width="1440" height="560" preserveAspectRatio="none" viewBox="0 0 1440 560"><g mask="url(&quot;#SvgjsMask1000&quot;)" fill="none"><rect width="1440" height="560" x="0" y="0" fill="#0e2a47"></rect><path d="M169.46 290.65 a42.74 42.74 0 1 0 85.48 0 a42.74 42.74 0 1 0 -85.48 0z" fill="#d3b714"></path><path d="M408.91 411.02a18.94 18.94 0 1 0 20.63-31.77z" fill="#e73635"></path><path d="M732.82 350.46L781.07 350.46L781.07 398.71L732.82 398.71z" fill="#e73635"></path><path d="M557.72 403.8a1.74 1.74 0 1 0-3.06 1.65z" fill="#e73635"></path><path d="M370.2 149.91a55.03 55.03 0 1 0-105.04 32.89z" stroke="#d3b714"></path><path d="M927.56 455.7a13.04 13.04 0 1 0 26.06 1z" fill="#d3b714"></path><path d="M364.19 413.78L367.43 413.78L367.43 443.36L364.19 443.36z" stroke="#037b0b"></path><path d="M1051.82 327.45 a55.41 55.41 0 1 0 110.82 0 a55.41 55.41 0 1 0 -110.82 0z" stroke="#d3b714"></path><path d="M257.11 552.78L267.09 552.78L267.09 562.76L257.11 562.76z" stroke="#037b0b"></path><path d="M449.95 291.48a17.87 17.87 0 1 0-9.82-34.37z" fill="#e73635"></path><path d="M203.14 552.39L218.08 552.39L218.08 567.33L203.14 567.33z" fill="#037b0b"></path><path d="M204.3 165.25 a14.98 14.98 0 1 0 29.96 0 a14.98 14.98 0 1 0 -29.96 0z" stroke="#037b0b"></path><path d="M1386.55 63.74a28.99 28.99 0 1 0-57.61 6.59z" stroke="#e73635"></path><path d="M105.13 420.88L120.9 420.88L120.9 436.65L105.13 436.65z" fill="#d3b714"></path><path d="M1080.46 324.78L1092.59 324.78L1092.59 357.73L1080.46 357.73z" stroke="#e73635"></path><path d="M277.25 417.25 a28.32 28.32 0 1 0 56.64 0 a28.32 28.32 0 1 0 -56.64 0z" fill="#037b0b"></path><path d="M467.79 420.31 a40.85 40.85 0 1 0 81.7 0 a40.85 40.85 0 1 0 -81.7 0z" fill="#037b0b"></path><path d="M818.72 207.73L828.39 207.73L828.39 221.89L818.72 221.89z" stroke="#037b0b"></path><path d="M473.97 216.75a43.8 43.8 0 1 0 61.74-62.15z" stroke="#d3b714"></path><path d="M1159.81 306.6L1197.83 306.6L1197.83 344.62L1159.81 344.62z" fill="#e73635"></path><path d="M1302.06 312.21L1306.76 312.21L1306.76 312.89L1302.06 312.89z" fill="#d3b714"></path><path d="M697.67 441.94L698.53 441.94L698.53 442.8L697.67 442.8z" stroke="#037b0b"></path><path d="M826.93 457.29L834.32 457.29L834.32 478.54L826.93 478.54z" fill="#037b0b"></path><path d="M89.57 503.92a50.11 50.11 0 1 0-11.43 99.57z" stroke="#037b0b"></path><path d="M498.95 329.23 a47.3 47.3 0 1 0 94.6 0 a47.3 47.3 0 1 0 -94.6 0z" stroke="#037b0b"></path><path d="M699.28 295.57L702.12 295.57L702.12 342.54L699.28 342.54z" stroke="#037b0b"></path><path d="M664.74 177.25L701.95 177.25L701.95 210.2L664.74 210.2z" stroke="#037b0b"></path><path d="M613.91 485.77L647.73 485.77L647.73 493.94L613.91 493.94z" stroke="#e73635"></path><path d="M1164.43 257.81L1214.85 257.81L1214.85 308.23L1164.43 308.23z" stroke="#e73635"></path><path d="M257.99 224.14 a39.63 39.63 0 1 0 79.26 0 a39.63 39.63 0 1 0 -79.26 0z" stroke="#d3b714"></path><path d="M1239.47 70.3a17.21 17.21 0 1 0-21.57 26.83z" stroke="#d3b714"></path><path d="M734.82 46.59a42.11 42.11 0 1 0-35.13-76.55z" stroke="#037b0b"></path><path d="M317.04 198.37a51.63 51.63 0 1 0 38.34-95.88z" stroke="#e73635"></path></g><defs><mask id="SvgjsMask1000"><rect width="1440" height="560" fill="#ffffff"></rect></mask></defs></svg>